<svg width="24" height="24" viewBox="0 0 24 24" fill="none" xmlns="http://www.w3.org/2000/svg" class="{class}">
    <path fill-rule="evenodd" clip-rule="evenodd" d="M9.7578 9.44993V8.51383C9.4329 8.46783 9.1053 8.44393 8.77715 8.44238C4.76453 8.44238 1.5 11.7075 1.5 15.7201C1.5 18.1816 2.73018 20.3605 4.60678 21.6781C3.35024 20.3343 2.65166 18.563 2.65268 16.7233C2.65268 12.7678 5.8243 9.54228 9.7578 9.44993" fill="currentColor" fill-opacity="0.5"/>
    <path fill-rule="evenodd" clip-rule="evenodd" d="M9.9293 20.0467C11.7196 20.0467 13.1801 18.6225 13.2466 16.8476L13.2527 1.00316H16.1473C16.0855 0.67234 16.0542 0.336542 16.0538 0H12.1006L12.094 15.845C12.028 17.6194 10.567 19.043 8.7772 19.043C8.23985 19.0432 7.7106 18.9123 7.23535 18.6616C7.5422 19.0897 7.9466 19.4386 8.41505 19.6794C8.8835 19.9203 9.40255 20.0462 9.9293 20.0467V20.0467ZM21.5545 6.3812V5.5006C20.4907 5.5016 19.4497 5.19215 18.5593 4.61014C19.34 5.50905 20.3911 6.13045 21.555 6.3812" fill="currentColor" fill-opacity="0.5"/>
    <path fill-rule="evenodd" clip-rule="evenodd" d="M18.559 4.60955C17.6864 3.61104 17.2057 2.32977 17.2063 1.00366H16.1471C16.2842 1.73663 16.5687 2.43414 16.9833 3.05395C17.3979 3.67376 17.9339 4.20297 18.559 4.60955V4.60955ZM8.77696 12.3963C7.89586 12.3973 7.05116 12.7478 6.42811 13.3708C5.80511 13.9938 5.45466 14.8385 5.45361 15.7196C5.45421 16.3257 5.62041 16.9202 5.93431 17.4387C6.24821 17.9571 6.69781 18.38 7.23456 18.6615C6.82586 18.0979 6.60581 17.4195 6.60576 16.7234C6.60661 15.8422 6.95701 14.9973 7.58006 14.3742C8.20311 13.751 9.04791 13.4005 9.92911 13.3995C10.2716 13.3995 10.5997 13.4561 10.9097 13.5534V9.51705C10.5849 9.47105 10.2572 9.44715 9.92911 9.4456C9.87136 9.4456 9.81476 9.4489 9.75761 9.45V12.5502C9.44046 12.4493 9.10976 12.3974 8.77696 12.3963" fill="currentColor" fill-opacity="0.75"/>
    <path fill-rule="evenodd" clip-rule="evenodd" d="M21.5546 6.38117V9.45387C19.5043 9.45387 17.6051 8.79812 16.0539 7.68502V15.7197C16.0539 19.7323 12.79 22.9968 8.77735 22.9968C7.2267 22.9968 5.78875 22.5076 4.60693 21.6776C5.2864 22.4103 6.10985 22.9948 7.02575 23.3945C7.94165 23.7941 8.9302 24.0002 9.92945 24C13.9421 24 17.2066 20.7355 17.2066 16.7234V8.68872C18.8091 9.84102 20.7335 10.4599 22.7072 10.4576V6.50322C22.3115 6.50322 21.9267 6.46032 21.5546 6.38062" fill="currentColor" fill-opacity="0.75"/>
    <path fill-rule="evenodd" clip-rule="evenodd" d="M16.054 15.7196V7.685C17.6564 8.8374 19.5808 9.45625 21.5546 9.45385V6.38115C20.3909 6.13015 19.3399 5.50855 18.5594 4.60955C17.9343 4.20297 17.3982 3.67376 16.9836 3.05395C16.5691 2.43414 16.2846 1.73663 16.1474 1.00366H13.2528L13.2468 16.8481C13.1803 18.6225 11.7198 20.0467 9.92945 20.0467C9.4027 20.0462 8.88365 19.9202 8.4152 19.6794C7.9468 19.4385 7.5424 19.0896 7.2355 18.6615C6.69865 18.3801 6.2489 17.9573 5.9349 17.4388C5.6209 16.9203 5.4546 16.3258 5.454 15.7196C5.455 14.8385 5.80545 13.9938 6.4285 13.3708C7.0515 12.7478 7.89625 12.3973 8.77735 12.3963C9.11925 12.3963 9.4474 12.4524 9.75795 12.5502V9.45C5.82445 9.54235 2.65283 12.7679 2.65283 16.7234C2.65283 18.6362 3.396 20.3776 4.60694 21.6781C5.8277 22.5375 7.28445 22.9981 8.77735 22.9968C12.79 22.9968 16.054 19.7323 16.054 15.7196" fill="currentColor"/>
</svg>
